<?xml version="1.0" encoding="utf-8"?>
<!-- Generator: Adobe Illustrator 16.2.0, SVG Export Plug-In . SVG Version: 6.00 Build 0)  -->
<!DOCTYPE svg PUBLIC "-//W3C//DTD SVG 1.1//EN" "http://www.w3.org/Graphics/SVG/1.1/DTD/svg11.dtd">
<svg version="1.1" id="Layer_1" xmlns="http://www.w3.org/2000/svg" xmlns:xlink="http://www.w3.org/1999/xlink" x="0px" y="0px"
	 width="1024px" height="1024px" viewBox="0 0 1024 1024" enable-background="new 0 0 1024 1024" xml:space="preserve">
<path d="M704.343,572.208c-56.388-2.86-65.393-11.973-65.393-11.973l18.068-43.848l78.41-155.391l-81.457,143.634l-8.246,9.576
	l-25.681,39.553c0,0-28.796-11.878-62.909-18.369c-11.255,0-13.594-49.835-45.143-49.835c-31.552,0-33.878,49.835-45.138,49.835
	c-34.119,6.491-62.903,18.369-62.903,18.369l-25.683-39.553l-8.239-9.576L288.56,360.997l78.408,155.391l18.074,43.848
	c0,0-9.015,9.112-65.397,11.973C-70.549,591.51,6.098,590.742,6.098,590.742s340.229,4.818,351.052,8.811
	c38.522,14.224,53.52,55.938,60.052,59.949c6.529,4.02,94.792,3.479,94.792,3.479s88.261,0.541,94.791-3.479
	c6.544-4.012,21.538-45.726,60.058-59.949c10.823-3.992,351.063-8.811,351.063-8.811S1094.543,591.51,704.343,572.208z M426.283,653
	c-6.41-21-36.341-61-36.341-61h42.199l43.686,61H426.283z M511.993,540.625l-36.605-3.008c0,0,12.393-49.815,36.605-49.815
	s36.622,49.815,36.622,49.815L511.993,540.625z M597.71,653h-49.539l43.68-61h42.202C634.053,592,604.117,632,597.71,653z"/>
</svg>
